<?xml version="1.0" encoding="UTF-8"?>
<svg width="92px" height="32px" viewBox="0 0 92 32" version="1.1" xmlns="http://www.w3.org/2000/svg" xmlns:xlink="http://www.w3.org/1999/xlink">
    <title>github-button</title>
    <g id="github-button" stroke="none" stroke-width="1" fill="none" fill-rule="evenodd">
        <path d="M4.26325641e-14,4 C4.26325641e-14,1.79 1.75032086,0 3.90032086,0 L88.1003209,0 C90.2503209,0 92.0003209,1.79 92.0003209,4 L92.0003209,28 C92.0003209,30.21 90.2503209,32 88.1003209,32 L3.90032086,32 C2.85268893,31.9868228 1.85320971,31.5579719 1.12179987,30.807808 C0.39039003,30.057644 -0.0130242234,29.0476298 4.26325641e-14,28 L4.26325641e-14,4 Z" id="Path" fill="#373737" fill-rule="nonzero"></path>
        <polygon id="Path" fill="#313131" fill-rule="nonzero" points="32.0003209 32 32.0003209 0 33.0003209 0 33.0003209 32"></polygon>
        <circle id="Oval" fill="#FFFFFF" cx="16" cy="16" r="6"></circle>
        <g id="Github" transform="translate(40.734020, 11.166903)" fill="#FFFFFF" fill-rule="nonzero">
            <path d="M6.703125,3.36541193 C6.61387311,3.08534564 6.49461411,2.83374763 6.34534801,2.6106179 C6.19608191,2.38748816 6.01834754,2.19667377 5.81214489,2.03817472 C5.60594223,1.87967566 5.37127131,1.75887784 5.1081321,1.67578125 C4.8449929,1.59268466 4.55646307,1.55113636 4.24254261,1.55113636 C3.7101089,1.55113636 3.22999527,1.68809186 2.8022017,1.96200284 C2.37440814,2.23591383 2.03663589,2.63677794 1.78888494,3.16459517 C1.541134,3.69241241 1.41725852,4.33794981 1.41725852,5.10120739 C1.41725852,5.86754261 1.54190341,6.51538826 1.79119318,7.04474432 C2.04048295,7.57410038 2.38210227,7.9757339 2.81605114,8.24964489 C3.25,8.52355587 3.74396307,8.66051136 4.29794034,8.66051136 C4.81190814,8.66051136 5.26047585,8.55587121 5.64364347,8.34659091 C6.02681108,8.13731061 6.32380445,7.84108665 6.53462358,7.45791903 C6.74544271,7.07475142 6.85085227,6.62310606 6.85085227,6.10298295 L7.22017045,6.17223011 L4.51491477,6.17223011 L4.51491477,4.99502841 L8.23117898,4.99502841 L8.23117898,6.07066761 C8.23117898,6.8647017 8.06267756,7.55332623 7.72567472,8.13654119 C7.38867188,8.71975616 6.9239465,9.16986269 6.33149858,9.4868608 C5.73905066,9.8038589 5.06119792,9.96235795 4.29794034,9.96235795 C3.44235322,9.96235795 2.69217566,9.76538826 2.04740767,9.37144886 C1.40263968,8.97750947 0.900213068,8.41814631 0.540127841,7.69335937 C0.180042614,6.96857244 2.27373675e-13,6.10759943 2.27373675e-13,5.11044034 C2.27373675e-13,4.35641572 0.104640152,3.67933239 0.313920455,3.07919034 C0.523200758,2.4790483 0.81788589,1.96892756 1.19797585,1.54882812 C1.57806581,1.12872869 2.02586411,0.80711411 2.54137074,0.583984375 C3.05687737,0.36085464 3.62085701,0.249289773 4.23330966,0.249289773 C4.74419981,0.249289773 5.22046638,0.324692235 5.66210938,0.475497159 C6.10375237,0.626302083 6.49769176,0.840198864 6.84392756,1.1171875 C7.19016335,1.39417614 7.47715436,1.72271544 7.70490057,2.1028054 C7.93264678,2.48289536 8.08652936,2.9037642 8.1665483,3.36541193 L6.703125,3.36541193 Z" id="Path"></path>
            <path d="M10.3732244,9.83309659 L10.3732244,2.7421875 L11.7535511,2.7421875 L11.7535511,9.83309659 L10.3732244,9.83309659 Z M11.0703125,1.64808239 C10.8302557,1.64808239 10.6248224,1.56729403 10.4540128,1.40571733 C10.2832031,1.24414063 10.1977983,1.05101799 10.1977983,0.826349432 C10.1977983,0.59860322 10.2832031,0.403941761 10.4540128,0.242365057 C10.6248224,0.0807883523 10.8302557,0 11.0703125,0 C11.3103693,0 11.5158026,0.0807883523 11.6866122,0.242365057 C11.8574219,0.403941761 11.9428267,0.59860322 11.9428267,0.826349432 C11.9428267,1.05101799 11.8574219,1.24414063 11.6866122,1.40571733 C11.5158026,1.56729403 11.3103693,1.64808239 11.0703125,1.64808239 Z" id="Shape"></path>
            <path d="M16.9193892,2.7421875 L16.9193892,3.85014205 L13.0461648,3.85014205 L13.0461648,2.7421875 L16.9193892,2.7421875 Z M14.0848722,1.04332386 L15.4651989,1.04332386 L15.4651989,7.75106534 C15.4651989,8.01882102 15.5052083,8.21963778 15.5852273,8.35351563 C15.6652462,8.48739347 15.769117,8.57818419 15.8968395,8.62588778 C16.024562,8.67359138 16.1638258,8.69744318 16.3146307,8.69744318 C16.4254261,8.69744318 16.5223722,8.68974905 16.6054688,8.6743608 C16.6885653,8.65897254 16.753196,8.64666193 16.7993608,8.63742898 L17.0486506,9.77769886 C16.9686316,9.80847538 16.8547585,9.84002131 16.7070313,9.87233665 C16.559304,9.90465199 16.3746449,9.92234848 16.153054,9.92542614 C15.7898911,9.93158144 15.4513494,9.86695076 15.137429,9.73153409 C14.8235085,9.59611742 14.5696023,9.38683712 14.3757102,9.10369318 C14.1818182,8.82054924 14.0848722,8.46508049 14.0848722,8.03728693 L14.0848722,1.04332386 Z" id="Shape"></path>
            <path d="M19.9708807,5.62286932 L19.9708807,9.83309659 L18.590554,9.83309659 L18.590554,0.378551136 L19.9524148,0.378551136 L19.9524148,3.89630682 L20.0401278,3.89630682 C20.206321,3.51467803 20.4602273,3.21152936 20.8018466,2.9868608 C21.1434659,2.76219223 21.5897254,2.64985795 22.140625,2.64985795 C22.6268939,2.64985795 23.0523793,2.74988163 23.417081,2.94992898 C23.7817827,3.14997633 24.0649266,3.44773911 24.2665128,3.84321733 C24.468099,4.23869555 24.568892,4.7318892 24.568892,5.3227983 L24.568892,9.83309659 L23.1885653,9.83309659 L23.1885653,5.48899148 C23.1885653,4.96886837 23.0546875,4.56492661 22.7869318,4.27716619 C22.5191761,3.98940578 22.1467803,3.84552557 21.6697443,3.84552557 C21.3435133,3.84552557 21.0519058,3.91477273 20.7949219,4.05326705 C20.537938,4.19176136 20.3363518,4.39411695 20.1901634,4.66033381 C20.0439749,4.92655066 19.9708807,5.24739583 19.9708807,5.62286932 Z" id="Path"></path>
            <path d="M30.9073153,6.89240057 L30.9073153,2.7421875 L32.2922585,2.7421875 L32.2922585,9.83309659 L30.9350142,9.83309659 L30.9350142,8.60511364 L30.8611506,8.60511364 C30.698035,8.98366477 30.4372041,9.29835464 30.0786577,9.54918324 C29.7201113,9.80001184 29.2746212,9.92542614 28.7421875,9.92542614 C28.2866951,9.92542614 27.8842921,9.82463305 27.5349787,9.62304687 C27.1856652,9.4214607 26.9117543,9.12215909 26.7132457,8.72514205 C26.5147372,8.328125 26.415483,7.83723958 26.415483,7.2524858 L26.415483,2.7421875 L27.7958097,2.7421875 L27.7958097,7.08629261 C27.7958097,7.5694839 27.9296875,7.95419034 28.1974432,8.24041193 C28.4651989,8.52663352 28.8129735,8.66974432 29.240767,8.66974432 C29.4992898,8.66974432 29.7570431,8.60511364 30.014027,8.47585227 C30.2710109,8.34659091 30.4849077,8.15116004 30.6557173,7.88955966 C30.826527,7.62795928 30.910393,7.29557292 30.9073153,6.89240057 Z" id="Path"></path>
            <path d="M34.2542614,9.83309659 L34.2542614,0.378551136 L35.6345881,0.378551136 L35.6345881,3.89169034 L35.7176847,3.89169034 C35.7977036,3.74396307 35.9131155,3.57315341 36.0639205,3.37926136 C36.2147254,3.18536932 36.4240057,3.01532907 36.6917614,2.86914062 C36.959517,2.72295218 37.313447,2.64985795 37.7535511,2.64985795 C38.3259943,2.64985795 38.8368845,2.79450758 39.2862216,3.08380682 C39.7355587,3.37310606 40.0887192,3.79012784 40.3457031,4.33487216 C40.602687,4.87961648 40.731179,5.53515625 40.731179,6.30149148 C40.731179,7.0678267 40.6034564,7.72413589 40.3480114,8.27041903 C40.0925663,8.81670218 39.741714,9.23680161 39.2954545,9.53071733 C38.8491951,9.82463305 38.3398438,9.97159091 37.7674006,9.97159091 C37.3365294,9.97159091 36.9849077,9.8992661 36.7125355,9.75461648 C36.4401634,9.60996686 36.227036,9.44069602 36.0731534,9.24680398 C35.9192708,9.05291193 35.8007813,8.88056345 35.7176847,8.72975852 L35.6022727,8.72975852 L35.6022727,9.83309659 L34.2542614,9.83309659 Z M35.6068892,6.28764205 C35.6068892,6.78622159 35.679214,7.22324811 35.8238636,7.59872159 C35.9685133,7.97419508 36.1777936,8.26734138 36.4517045,8.47816051 C36.7256155,8.68897964 37.0610795,8.7943892 37.4580966,8.7943892 C37.8705019,8.7943892 38.2151989,8.68436316 38.4921875,8.46431108 C38.7691761,8.244259 38.9792259,7.94495739 39.1223366,7.56640625 C39.2654474,7.18785511 39.3370028,6.76160038 39.3370028,6.28764205 C39.3370028,5.81983902 39.2669863,5.39973958 39.1269531,5.02734375 C38.98692,4.65494792 38.7776397,4.3610322 38.4991122,4.14559659 C38.2205848,3.93016098 37.8735795,3.82244318 37.4580966,3.82244318 C37.0580019,3.82244318 36.7202296,3.92554451 36.4447798,4.13174716 C36.16933,4.33794981 35.9608191,4.62571023 35.8192472,4.99502841 C35.6776752,5.36434659 35.6068892,5.7952178 35.6068892,6.28764205 Z" id="Shape"></path>
        </g>
    </g>
</svg>