<?xml version="1.0" encoding="UTF-8"?>
<svg width="106px" height="32px" viewBox="0 0 106 32" version="1.1" xmlns="http://www.w3.org/2000/svg" xmlns:xlink="http://www.w3.org/1999/xlink">
    <title>telegram-button</title>
    <g id="telegram-button" stroke="none" stroke-width="1" fill="none" fill-rule="evenodd">
        <path d="M-0.000643169559,4 C-0.000643169559,1.79 1.88349698,0 4.19708337,0 L101.803583,0 C104.117169,0 106.000321,1.79 106.000321,4 L106.000321,28 C106.000321,30.21 104.117169,32 101.803583,32 L4.19708337,32 C3.06974059,31.9868228 1.99421431,31.5579719 1.20715391,30.807808 C0.420093516,30.057644 -0.0140151934,29.0476298 -0.000643169559,28 L-0.000643169559,4 Z" id="Path" fill="#2E4392" fill-rule="nonzero"></path>
        <polygon id="Path" fill="#283B80" fill-rule="nonzero" points="32.0003209 32 32.0003209 0 33.0003209 0 33.0003209 32"></polygon>
        <g id="Telegram" transform="translate(40.572443, 11.545455)" fill="#FFFFFF" fill-rule="nonzero">
            <polygon id="Path" points="0 1.22798295 0 -1.77635684e-15 7.31711648 -1.77635684e-15 7.31711648 1.22798295 4.3671875 1.22798295 4.3671875 9.45454545 2.9453125 9.45454545 2.9453125 1.22798295"></polygon>
            <path d="M10.8194886,9.59765625 C10.1208617,9.59765625 9.51995028,9.44762074 9.01675426,9.14754972 C8.51355824,8.84747869 8.12577415,8.42430161 7.85340199,7.87801847 C7.58102983,7.33173532 7.44484375,6.69081439 7.44484375,5.95525568 C7.44484375,5.22892992 7.58102983,4.58877841 7.85340199,4.03480114 C8.12577415,3.48082386 8.50740294,3.04841383 8.99828835,2.73757102 C9.48917377,2.42672822 10.0639252,2.27130682 10.7225426,2.27130682 C11.1226373,2.27130682 11.5104214,2.33747633 11.8858949,2.46981534 C12.2613684,2.60215436 12.5983712,2.80989583 12.8969034,3.09303977 C13.1954356,3.37618371 13.4308759,3.74319366 13.6032244,4.1940696 C13.7755729,4.64494555 13.8617472,5.19199811 13.8617472,5.83522727 L13.8617472,6.32457386 L8.22502841,6.32457386 L8.22502841,5.29048295 L12.5091193,5.29048295 C12.5091193,4.92732008 12.4352557,4.60493608 12.2875284,4.32333097 C12.1398011,4.04172585 11.9328291,3.81936553 11.6666122,3.65625 C11.4003954,3.49313447 11.0887831,3.4115767 10.7317756,3.4115767 C10.3439915,3.4115767 10.0062192,3.50621449 9.71845881,3.69549006 C9.43069839,3.88476562 9.20910748,4.13097775 9.05368608,4.43412642 C8.89826468,4.73727509 8.82055398,5.06581439 8.82055398,5.41974432 L8.82055398,6.22762784 C8.82055398,6.70158617 8.90441998,7.10475852 9.07215199,7.43714489 C9.239884,7.76953125 9.47455492,8.02266809 9.77616477,8.1965554 C10.0777746,8.37044271 10.4301657,8.45738636 10.8333381,8.45738636 C11.0949384,8.45738636 11.3334564,8.41968513 11.548892,8.34428267 C11.7643277,8.26888021 11.9505256,8.15577652 12.1074858,8.00497159 C12.264446,7.85416667 12.3844744,7.66796875 12.467571,7.44637784 L13.7740341,7.68181818 C13.6693939,8.06652462 13.4824266,8.40275805 13.2131321,8.69051847 C12.9438376,8.97827888 12.6068348,9.20140862 12.2021236,9.35990767 C11.7974124,9.51840672 11.3365341,9.59765625 10.8194886,9.59765625 Z" id="Path"></path>
            <polygon id="Path" points="16.7593608 -1.77635684e-15 16.7593608 9.45454545 15.3790341 9.45454545 15.3790341 -1.77635684e-15"></polygon>
            <path d="M21.6512926,9.59765625 C20.9526657,9.59765625 20.3517543,9.44762074 19.8485582,9.14754972 C19.3453622,8.84747869 18.9575781,8.42430161 18.685206,7.87801847 C18.4128338,7.33173532 18.2766477,6.69081439 18.2766477,5.95525568 C18.2766477,5.22892992 18.4128338,4.58877841 18.685206,4.03480114 C18.9575781,3.48082386 19.3392069,3.04841383 19.8300923,2.73757102 C20.3209777,2.42672822 20.8957292,2.27130682 21.5543466,2.27130682 C21.9544413,2.27130682 22.3422254,2.33747633 22.7176989,2.46981534 C23.0931723,2.60215436 23.4301752,2.80989583 23.7287074,3.09303977 C24.0272396,3.37618371 24.2626799,3.74319366 24.4350284,4.1940696 C24.6073769,4.64494555 24.6935511,5.19199811 24.6935511,5.83522727 L24.6935511,6.32457386 L19.0568324,6.32457386 L19.0568324,5.29048295 L23.3409233,5.29048295 C23.3409233,4.92732008 23.2670597,4.60493608 23.1193324,4.32333097 C22.9716051,4.04172585 22.764633,3.81936553 22.4984162,3.65625 C22.2321993,3.49313447 21.9205871,3.4115767 21.5635795,3.4115767 C21.1757955,3.4115767 20.8380232,3.50621449 20.5502628,3.69549006 C20.2625024,3.88476562 20.0409115,4.13097775 19.8854901,4.43412642 C19.7300687,4.73727509 19.652358,5.06581439 19.652358,5.41974432 L19.652358,6.22762784 C19.652358,6.70158617 19.736224,7.10475852 19.903956,7.43714489 C20.071688,7.76953125 20.3063589,8.02266809 20.6079688,8.1965554 C20.9095786,8.37044271 21.2619697,8.45738636 21.665142,8.45738636 C21.9267424,8.45738636 22.1652604,8.41968513 22.380696,8.34428267 C22.5961316,8.26888021 22.7823295,8.15577652 22.9392898,8.00497159 C23.09625,7.85416667 23.2162784,7.66796875 23.299375,7.44637784 L24.6058381,7.68181818 C24.5011979,8.06652462 24.3142306,8.40275805 24.0449361,8.69051847 C23.7756416,8.97827888 23.4386387,9.20140862 23.0339276,9.35990767 C22.6292164,9.51840672 22.1683381,9.59765625 21.6512926,9.59765625 Z" id="Path"></path>
            <path d="M29.1838494,12.2613636 C28.6206392,12.2613636 28.1366785,12.1875 27.7319673,12.0397727 C27.3272562,11.8920455 26.997178,11.6966146 26.741733,11.4534801 C26.4862879,11.2103456 26.2954735,10.9441288 26.1692898,10.6548295 L27.3557244,10.165483 C27.438821,10.3008996 27.5503859,10.4447798 27.690419,10.5971236 C27.8304522,10.7494673 28.0212666,10.8794981 28.2628622,10.9872159 C28.5044579,11.0949337 28.8160701,11.1487926 29.1976989,11.1487926 C29.7208996,11.1487926 30.1533097,11.0218395 30.494929,10.7679332 C30.8365483,10.514027 31.007358,10.1100852 31.007358,9.55610795 L31.007358,8.16193182 L30.9196449,8.16193182 C30.8365483,8.31273674 30.7172893,8.48046875 30.5618679,8.66512784 C30.4064465,8.84978693 30.1933191,9.00982481 29.9224858,9.14524148 C29.6516525,9.28065814 29.2992614,9.34836648 28.8653125,9.34836648 C28.3051799,9.34836648 27.8012145,9.21679688 27.3534162,8.95365767 C26.9056179,8.69051847 26.551688,8.30119555 26.2916264,7.78568892 C26.0315649,7.27018229 25.9015341,6.63541667 25.9015341,5.88139205 C25.9015341,5.12736742 26.030026,4.48106061 26.2870099,3.94247159 C26.5439938,3.40388258 26.8971544,2.99070786 27.3464915,2.70294744 C27.7958286,2.41518703 28.3051799,2.27130682 28.8745455,2.27130682 C29.3146496,2.27130682 29.6701184,2.34440104 29.9409517,2.49058949 C30.211785,2.63677794 30.4233736,2.80681818 30.5757173,3.00071023 C30.7280611,3.19460227 30.8457812,3.36541193 30.9288778,3.5131392 L31.0304403,3.5131392 L31.0304403,2.36363636 L32.3830682,2.36363636 L32.3830682,9.61150568 C32.3830682,10.2208807 32.2414962,10.7209991 31.9583523,11.1118608 C31.6752083,11.5027225 31.2928101,11.7920218 30.8111577,11.9797585 C30.3295052,12.1674953 29.7870691,12.2613636 29.1838494,12.2613636 Z M29.17,8.20348011 C29.567017,8.20348011 29.9032505,8.11038116 30.1787003,7.92418324 C30.4541501,7.73798532 30.6634304,7.47022964 30.8065412,7.12091619 C30.949652,6.77160275 31.0212074,6.35227273 31.0212074,5.86292614 C31.0212074,5.38589015 30.9504214,4.96579072 30.8088494,4.60262784 C30.6672775,4.23946496 30.459536,3.95555161 30.185625,3.75088778 C29.911714,3.54622396 29.5731723,3.44389205 29.17,3.44389205 C28.754517,3.44389205 28.4082812,3.55084044 28.1312926,3.76473722 C27.854304,3.978634 27.6457931,4.26870265 27.5057599,4.63494318 C27.3657268,5.00118371 27.2957102,5.41051136 27.2957102,5.86292614 C27.2957102,6.32765152 27.3664962,6.73544034 27.5080682,7.08629261 C27.6496402,7.43714489 27.8596899,7.71105587 28.1382173,7.90802557 C28.4167448,8.10499527 28.7606723,8.20348011 29.17,8.20348011 Z" id="Shape"></path>
            <path d="M34.2142756,9.45454545 L34.2142756,2.36363636 L35.5484375,2.36363636 L35.5484375,3.49005682 L35.6223011,3.49005682 C35.7515625,3.10842803 35.9800781,2.80758759 36.307848,2.58753551 C36.6356179,2.36748343 37.0072443,2.25745739 37.4227273,2.25745739 C37.5089015,2.25745739 37.6112334,2.26053504 37.729723,2.26669034 C37.8482126,2.27284564 37.9413116,2.28053977 38.0090199,2.28977273 L38.0090199,3.61008523 C37.9536222,3.59469697 37.8551373,3.57700047 37.7135653,3.55699574 C37.5719934,3.536991 37.4304214,3.52698864 37.2888494,3.52698864 C36.9626184,3.52698864 36.6725497,3.59546638 36.4186435,3.73242187 C36.1647372,3.86937737 35.9639205,4.05865294 35.8161932,4.30024858 C35.6684659,4.54184422 35.5946023,4.81652462 35.5946023,5.12428977 L35.5946023,9.45454545 L34.2142756,9.45454545 Z" id="Path"></path>
            <path d="M41.1882386,9.61150568 C40.7389015,9.61150568 40.3326515,9.52763968 39.9694886,9.35990767 C39.6063258,9.19217566 39.3193348,8.94827178 39.1085156,8.62819602 C38.8976965,8.30812027 38.7922869,7.9157197 38.7922869,7.45099432 C38.7922869,7.05089962 38.8692282,6.72159091 39.0231108,6.46306818 C39.1769934,6.20454545 39.3847348,5.99988163 39.6463352,5.8490767 C39.9079356,5.69827178 40.2003125,5.58439867 40.5234659,5.50745739 C40.8466193,5.4305161 41.175928,5.37204072 41.511392,5.33203125 C41.936108,5.28278883 42.2808049,5.24200994 42.545483,5.2096946 C42.810161,5.17737926 43.0025142,5.12428977 43.1225426,5.05042614 C43.242571,4.9765625 43.3025852,4.85653409 43.3025852,4.69034091 L43.3025852,4.65802557 C43.3025852,4.25485322 43.1894815,3.94247159 42.9632741,3.72088068 C42.7370668,3.49928977 42.4008333,3.38849432 41.9545739,3.38849432 C41.4898485,3.38849432 41.1243774,3.49082623 40.8581605,3.69549006 C40.5919437,3.90015388 40.408054,4.12713068 40.3064915,4.37642045 L39.0092614,4.08096591 C39.1631439,3.6500947 39.3885819,3.30155066 39.6855753,3.03533381 C39.9825687,2.76911695 40.3249574,2.57522491 40.7127415,2.45365767 C41.1005256,2.33209044 41.5083144,2.27130682 41.936108,2.27130682 C42.2192519,2.27130682 42.5200923,2.30439157 42.8386293,2.37056108 C43.1571662,2.43673059 43.4556984,2.55752841 43.7342259,2.73295455 C44.0127533,2.90838068 44.2412689,3.15843987 44.4197727,3.4831321 C44.5982765,3.80782434 44.6875284,4.22869318 44.6875284,4.74573864 L44.6875284,9.45454545 L43.339517,9.45454545 L43.339517,8.48508523 L43.2841193,8.48508523 C43.1948674,8.66358902 43.0609896,8.83901515 42.8824858,9.01136364 C42.703982,9.18371212 42.474697,9.32682292 42.1946307,9.44069602 C41.9145644,9.55456913 41.5791004,9.61150568 41.1882386,9.61150568 Z M41.4883097,8.50355114 C41.8699384,8.50355114 42.1969389,8.42814867 42.4693111,8.27734375 C42.7416832,8.12653883 42.9494247,7.92879972 43.0925355,7.68412642 C43.2356463,7.43945312 43.3072017,7.17708333 43.3072017,6.89701705 L43.3072017,5.98295455 C43.2579593,6.03219697 43.1633215,6.07759233 43.0232884,6.11914062 C42.8832552,6.16068892 42.7239867,6.19608191 42.545483,6.2253196 C42.3669792,6.25455729 42.1930919,6.28071733 42.023821,6.30379972 C41.8545502,6.3268821 41.7129782,6.34611742 41.5991051,6.36150568 C41.3313494,6.39535985 41.0874455,6.4522964 40.8673935,6.53231534 C40.6473414,6.61233428 40.4719152,6.7269768 40.3411151,6.8762429 C40.2103149,7.025509 40.1449148,7.22324811 40.1449148,7.46946023 C40.1449148,7.81107955 40.2710985,8.06883286 40.5234659,8.24272017 C40.7758333,8.41660748 41.0974479,8.50355114 41.4883097,8.50355114 Z" id="Shape"></path>
            <path d="M46.5048864,9.45454545 L46.5048864,2.36363636 L47.8298153,2.36363636 L47.8298153,3.51775568 L47.9175284,3.51775568 C48.0652557,3.12689394 48.3068513,2.82143703 48.6423153,2.60138494 C48.9777794,2.38133286 49.3794129,2.27130682 49.8472159,2.27130682 C50.3211742,2.27130682 50.7189607,2.38210227 51.0405753,2.60369318 C51.3621899,2.82528409 51.5999384,3.12997159 51.753821,3.51775568 L51.8276847,3.51775568 C51.9969555,3.13920455 52.26625,2.83682528 52.6355682,2.6106179 C53.0048864,2.38441051 53.4449905,2.27130682 53.9558807,2.27130682 C54.5991098,2.27130682 55.1246188,2.47289299 55.5324077,2.87606534 C55.9401965,3.27923769 56.1440909,3.88707386 56.1440909,4.69957386 L56.1440909,9.45454545 L54.7637642,9.45454545 L54.7637642,4.82883523 C54.7637642,4.34872159 54.632964,4.00094697 54.3713636,3.78551136 C54.1097633,3.57007576 53.7973816,3.46235795 53.4342187,3.46235795 C52.9848816,3.46235795 52.6355682,3.60008286 52.3862784,3.87553267 C52.1369886,4.15098248 52.0123437,4.50414299 52.0123437,4.9350142 L52.0123437,9.45454545 L50.6366335,9.45454545 L50.6366335,4.74112216 C50.6366335,4.35641572 50.5166051,4.04711174 50.2765483,3.81321023 C50.0364915,3.57930871 49.7241098,3.46235795 49.3394034,3.46235795 C49.077803,3.46235795 48.8369768,3.5308357 48.6169247,3.66779119 C48.3968726,3.80474669 48.2199077,3.99479167 48.0860298,4.23792614 C47.952152,4.48106061 47.8852131,4.76266572 47.8852131,5.08274148 L47.8852131,9.45454545 L46.5048864,9.45454545 Z" id="Path"></path>
        </g>
        <g id="sv" transform="translate(9.000000, 9.000000)" fill="#FFFFFF" fill-rule="nonzero">
            <g id="paper-plane-solid">
                <path d="M13.6173839,0.15319779 C13.8934985,0.344564371 14.0383903,0.675355174 13.986448,1.00614598 L12.2368107,12.3787885 C12.1958035,12.6439679 12.0345089,12.8763416 11.7994013,13.0075644 C11.5642938,13.1387872 11.2827116,13.15519 11.033935,13.0513053 L7.7643003,11.6926026 L5.89164162,13.7183546 C5.64833268,13.983534 5.26559952,14.0710158 4.9293411,13.939793 C4.59308268,13.8085702 4.37437801,13.483247 4.37437801,13.1223843 L4.37437801,10.8369206 C4.37437801,10.7275683 4.41538514,10.6236836 4.48919796,10.5444031 L9.07106067,5.54426775 C9.22962155,5.37203783 9.22415393,5.10685842 9.06012543,4.94282992 C8.89609694,4.77880143 8.63091753,4.76786619 8.45868761,4.92369327 L2.89812153,9.86368486 L0.484168809,8.65534159 C0.19438513,8.51044975 0.00848616593,8.22066607 0.000284741046,7.89807669 C-0.00791668384,7.57548731 0.16157943,7.2747684 0.440427877,7.11347371 L12.687889,0.114924474 C12.9804065,-0.0518378322 13.3412692,-0.0354349824 13.6173839,0.15319779 Z" id="Path"></path>
            </g>
        </g>
    </g>
</svg>