<?xml version="1.0" standalone="no"?>
<!DOCTYPE svg PUBLIC "-//W3C//DTD SVG 20010904//EN"
 "http://www.w3.org/TR/2001/REC-SVG-20010904/DTD/svg10.dtd">
<svg version="1.0" xmlns="http://www.w3.org/2000/svg"
 width="493.000000pt" height="493.000000pt" viewBox="0 0 493.000000 493.000000"
 preserveAspectRatio="xMidYMid meet">
<metadata>
Created by potrace 1.14, written by Peter Selinger 2001-2017
</metadata>
<g transform="translate(0.000000,493.000000) scale(0.100000,-0.100000)"
fill="#000000" stroke="none">
<path d="M1080 4101 c-101 -22 -209 -66 -288 -118 -77 -50 -199 -173 -250
-253 -117 -181 -162 -444 -106 -630 47 -160 180 -321 324 -393 146 -72 123
-70 840 -76 l645 -6 59 -30 c77 -39 146 -108 185 -186 55 -111 141 -99 -740
-99 -740 0 -775 1 -872 21 -181 36 -340 116 -480 238 -96 84 -131 95 -207 65
-29 -12 -48 -29 -65 -59 -45 -76 -29 -138 57 -215 47 -43 49 -47 38 -72 -22
-48 -6 -75 78 -129 83 -54 120 -59 152 -21 15 18 18 18 80 -12 60 -28 65 -34
67 -64 2 -47 15 -58 106 -88 96 -31 131 -24 149 27 8 23 14 28 27 22 9 -4 377
-9 819 -11 l803 -3 -27 -50 c-37 -66 -101 -124 -182 -162 l-67 -32 -625 -5
c-600 -5 -626 -6 -658 -25 -36 -22 -72 -86 -72 -129 0 -75 79 -146 163 -146
40 0 46 -3 56 -29 16 -38 49 -51 131 -51 82 0 115 13 131 51 10 27 16 29 64
29 48 0 54 -2 64 -29 16 -38 49 -51 131 -51 82 0 115 13 131 51 11 27 15 29
69 29 54 0 58 -2 69 -29 16 -38 49 -51 131 -51 81 0 115 13 130 50 10 25 18
28 91 38 92 13 208 57 282 106 74 49 169 148 208 217 19 32 36 59 39 59 3 0
11 -27 17 -60 25 -134 135 -293 260 -376 32 -21 94 -52 138 -69 l80 -30 502
-3 c490 -3 503 -3 542 18 44 22 81 80 81 126 0 43 -36 107 -72 129 -31 19 -57
20 -523 25 l-490 5 -50 25 c-61 30 -126 95 -157 157 -22 46 -23 59 -26 305
l-3 257 40 -16 40 -16 3 -191 c3 -210 10 -236 71 -297 66 -66 42 -64 592 -69
495 -5 500 -5 550 -28 223 -103 237 -399 24 -517 l-54 -30 -285 -5 c-324 -6
-333 -8 -371 -87 -53 -109 29 -212 169 -213 17 0 32 -5 32 -10 0 -6 11 -22 25
-35 22 -23 32 -25 115 -25 83 0 93 2 115 25 14 13 25 28 25 33 0 5 30 12 68
14 63 4 68 3 94 -24 31 -33 48 -34 148 -8 85 22 113 46 109 94 -2 27 9 42 77
111 126 127 176 247 176 420 -1 216 -119 408 -311 509 -117 61 -107 60 -611
65 l-465 6 -3 123 -3 122 290 0 c282 0 290 -1 296 -20 15 -48 43 -60 135 -60
92 0 120 12 135 60 5 16 15 20 55 20 40 0 50 -4 55 -20 15 -48 43 -60 135 -60
92 0 120 12 135 60 4 11 15 20 26 20 11 0 38 9 59 20 43 22 80 80 80 126 0 47
-37 108 -79 132 -38 22 -44 22 -510 22 l-472 0 16 30 c34 66 45 150 45 365 0
233 9 287 61 385 17 31 50 76 74 100 44 43 45 43 66 25 27 -26 79 -24 152 4
67 26 86 43 94 82 5 28 8 29 58 29 48 0 54 -2 64 -29 16 -38 49 -51 131 -51
82 0 115 13 131 51 6 16 18 29 27 29 9 0 35 9 58 21 45 21 84 81 84 129 0 49
-39 108 -86 130 -42 21 -54 22 -306 18 -236 -3 -271 -6 -343 -26 -256 -73
-460 -275 -536 -532 -19 -65 -22 -109 -28 -330 -6 -236 -8 -258 -28 -296 -80
-150 -270 -177 -411 -57 -31 26 -34 34 -43 113 -71 637 -542 1152 -1184 1290
-87 19 -139 23 -400 26 -264 3 -310 2 -385 -15z m1307 -620 c60 -41 100 -92
114 -145 30 -110 -37 -206 -143 -206 -84 0 -206 98 -229 184 -44 163 114 265
258 167z m1901 -1568 c-10 -2 -26 -2 -35 0 -10 3 -2 5 17 5 19 0 27 -2 18 -5z
m262 -118 c13 -14 21 -25 18 -25 -2 0 -15 11 -28 25 -13 14 -21 25 -18 25 2 0
15 -11 28 -25z"/>
<path d="M2215 3425 c-23 -22 -27 -33 -22 -66 10 -76 80 -146 156 -156 33 -5
44 -1 66 22 23 22 27 33 22 66 -3 22 -15 55 -28 73 -30 45 -80 77 -128 83 -33
5 -44 1 -66 -22z"/>
</g>
</svg>
