<?xml version="1.0" encoding="UTF-8"?>
<svg width="92px" height="32px" viewBox="0 0 92 32" version="1.1" xmlns="http://www.w3.org/2000/svg" xmlns:xlink="http://www.w3.org/1999/xlink">
    <title>vercel-button</title>
    <g id="vercel-button" stroke="none" stroke-width="1" fill="none" fill-rule="evenodd">
        <path d="M4.26325641e-14,4 C4.26325641e-14,1.79 1.75032086,0 3.90032086,0 L88.1003209,0 C90.2503209,0 92.0003209,1.79 92.0003209,4 L92.0003209,28 C92.0003209,30.21 90.2503209,32 88.1003209,32 L3.90032086,32 C2.85268893,31.9868228 1.85320971,31.5579719 1.12179987,30.807808 C0.39039003,30.057644 -0.0130242234,29.0476298 4.26325641e-14,28 L4.26325641e-14,4 Z" id="Path" fill="#1374EF" fill-rule="nonzero"></path>
        <polygon id="Path" fill="#1269D3" fill-rule="nonzero" points="32.0003209 32 32.0003209 0 33.0003209 0 33.0003209 32"></polygon>
        <polygon id="Path" fill="#FFFFFF" fill-rule="nonzero" points="16.0003209 10 15.5903209 10.76 10.3903209 20.29 10.0003209 21 22.0003209 21 21.6103209 20.29 16.4203209 10.76"></polygon>
        <g id="Deploy" transform="translate(41.488977, 11.545455)" fill="#FFFFFF" fill-rule="nonzero">
            <path d="M3.06072443,9.45454545 L0,9.45454545 L0,0 L3.15767045,0 C4.08404356,0 4.87961648,0.188506155 5.5443892,0.565518466 C6.20916193,0.942530777 6.71928267,1.48265862 7.07475142,2.18590199 C7.43022017,2.88914536 7.60795455,3.73165246 7.60795455,4.7134233 C7.60795455,5.69827178 7.42868134,6.54462595 7.07013494,7.2524858 C6.71158854,7.96034564 6.19377367,8.50432055 5.51669034,8.88441051 C4.83960701,9.26450047 4.0209517,9.45454545 3.06072443,9.45454545 Z M1.42649148,8.20809659 L2.98224432,8.20809659 C3.70241477,8.20809659 4.30101799,8.07191051 4.77805398,7.79953835 C5.25508996,7.52716619 5.61209754,7.13168797 5.8490767,6.61310369 C6.08605587,6.09451941 6.20454545,5.46129261 6.20454545,4.7134233 C6.20454545,3.97170928 6.08682528,3.34232955 5.85138494,2.82528409 C5.6159446,2.30823864 5.26586174,1.91583807 4.80113636,1.64808239 C4.33641098,1.3803267 3.75935133,1.24644886 3.06995739,1.24644886 L1.42649148,1.24644886 L1.42649148,8.20809659 Z" id="Shape"></path>
            <path d="M12.3059943,9.59765625 C11.6073674,9.59765625 11.006456,9.44762074 10.5032599,9.14754972 C10.0000639,8.84747869 9.61227983,8.42430161 9.33990767,7.87801847 C9.06753551,7.33173532 8.93134943,6.69081439 8.93134943,5.95525568 C8.93134943,5.22892992 9.06753551,4.58877841 9.33990767,4.03480114 C9.61227983,3.48082386 9.99390862,3.04841383 10.484794,2.73757102 C10.9756795,2.42672822 11.5504309,2.27130682 12.2090483,2.27130682 C12.609143,2.27130682 12.9969271,2.33747633 13.3724006,2.46981534 C13.7478741,2.60215436 14.0848769,2.80989583 14.3834091,3.09303977 C14.6819413,3.37618371 14.9173816,3.74319366 15.0897301,4.1940696 C15.2620786,4.64494555 15.3482528,5.19199811 15.3482528,5.83522727 L15.3482528,6.32457386 L9.71153409,6.32457386 L9.71153409,5.29048295 L13.995625,5.29048295 C13.995625,4.92732008 13.9217614,4.60493608 13.7740341,4.32333097 C13.6263068,4.04172585 13.4193348,3.81936553 13.1531179,3.65625 C12.886901,3.49313447 12.5752888,3.4115767 12.2182813,3.4115767 C11.8304972,3.4115767 11.4927249,3.50621449 11.2049645,3.69549006 C10.9172041,3.88476563 10.6956132,4.13097775 10.5401918,4.43412642 C10.3847704,4.73727509 10.3070597,5.06581439 10.3070597,5.41974432 L10.3070597,6.22762784 C10.3070597,6.70158617 10.3909257,7.10475852 10.5586577,7.43714489 C10.7263897,7.76953125 10.9610606,8.02266809 11.2626705,8.1965554 C11.5642803,8.37044271 11.9166714,8.45738636 12.3198438,8.45738636 C12.5814441,8.45738636 12.8199621,8.41968513 13.0353977,8.34428267 C13.2508333,8.26888021 13.4370313,8.15577652 13.5939915,8.00497159 C13.7509517,7.85416667 13.8709801,7.66796875 13.9540767,7.44637784 L15.2605398,7.68181818 C15.1558996,8.06652462 14.9689323,8.40275805 14.6996378,8.69051847 C14.4303433,8.97827888 14.0933404,9.20140862 13.6886293,9.35990767 C13.2839181,9.51840672 12.8230398,9.59765625 12.3059943,9.59765625 Z" id="Path"></path>
            <path d="M16.8655398,12.1136364 L16.8655398,2.36363636 L18.2135511,2.36363636 L18.2135511,3.5131392 L18.3289631,3.5131392 C18.408982,3.36541193 18.5243939,3.19460227 18.6751989,3.00071023 C18.8260038,2.80681818 19.0352841,2.63677794 19.3030398,2.49058949 C19.5707955,2.34440104 19.9247254,2.27130682 20.3648295,2.27130682 C20.9372727,2.27130682 21.4481629,2.41595644 21.8975,2.70525568 C22.3468371,2.99455492 22.6999976,3.4115767 22.9569815,3.95632102 C23.2139654,4.50106534 23.3424574,5.15660511 23.3424574,5.92294034 C23.3424574,6.68927557 23.2147348,7.34558475 22.9592898,7.8918679 C22.7038447,8.43815104 22.3529924,8.85825047 21.906733,9.15216619 C21.4604735,9.44608191 20.9511222,9.59303977 20.378679,9.59303977 C19.9478078,9.59303977 19.5961861,9.52071496 19.3238139,9.37606534 C19.0514418,9.23141572 18.8383144,9.06214489 18.6844318,8.86825284 C18.5305492,8.6743608 18.4120597,8.50201231 18.3289631,8.35120739 L18.2458665,8.35120739 L18.2458665,12.1136364 L16.8655398,12.1136364 Z M18.2181676,5.90909091 C18.2181676,6.40767045 18.2904924,6.84469697 18.435142,7.22017045 C18.5797917,7.59564394 18.789072,7.88879025 19.062983,8.09960938 C19.3368939,8.3104285 19.672358,8.41583807 20.069375,8.41583807 C20.4817803,8.41583807 20.8264773,8.30581203 21.1034659,8.08575994 C21.3804545,7.86570786 21.5905043,7.56640625 21.7336151,7.18785511 C21.8767259,6.80930398 21.9482813,6.38304924 21.9482813,5.90909091 C21.9482813,5.44128788 21.8782647,5.02118845 21.7382315,4.64879261 C21.5981984,4.27639678 21.3889181,3.98248106 21.1103906,3.76704545 C20.8318632,3.55160985 20.484858,3.44389205 20.069375,3.44389205 C19.6692803,3.44389205 19.331508,3.54699337 19.0560582,3.75319602 C18.7806084,3.95939867 18.5720975,4.24715909 18.4305256,4.61647727 C18.2889536,4.98579545 18.2181676,5.41666667 18.2181676,5.90909091 Z" id="Shape"></path>
            <polygon id="Path" points="26.249304 0 26.249304 9.45454545 24.8689773 9.45454545 24.8689773 0"></polygon>
            <path d="M31.0719886,9.59765625 C30.4072159,9.59765625 29.8270786,9.4453125 29.3315767,9.140625 C28.8360748,8.8359375 28.4513684,8.40968277 28.1774574,7.8618608 C27.9035464,7.31403883 27.7665909,6.67388731 27.7665909,5.94140625 C27.7665909,5.20584754 27.9035464,4.56261837 28.1774574,4.01171875 C28.4513684,3.46081913 28.8360748,3.03302557 29.3315767,2.72833807 C29.8270786,2.42365057 30.4072159,2.27130682 31.0719886,2.27130682 C31.7367614,2.27130682 32.3168987,2.42365057 32.8124006,2.72833807 C33.3079025,3.03302557 33.6926089,3.46081913 33.9665199,4.01171875 C34.2404309,4.56261837 34.3773864,5.20584754 34.3773864,5.94140625 C34.3773864,6.67388731 34.2404309,7.31403883 33.9665199,7.8618608 C33.6926089,8.40968277 33.3079025,8.8359375 32.8124006,9.140625 C32.3168987,9.4453125 31.7367614,9.59765625 31.0719886,9.59765625 Z M31.0766051,8.43892045 C31.5074763,8.43892045 31.8644839,8.32504735 32.1476278,8.09730114 C32.4307718,7.86955492 32.6408215,7.56640625 32.777777,7.18785511 C32.9147325,6.80930398 32.9832102,6.3922822 32.9832102,5.93678977 C32.9832102,5.484375 32.9147325,5.06812263 32.777777,4.68803267 C32.6408215,4.30794271 32.4307718,4.0024858 32.1476278,3.77166193 C31.8644839,3.54083807 31.5074763,3.42542614 31.0766051,3.42542614 C30.6426563,3.42542614 30.2833404,3.54083807 29.9986577,3.77166193 C29.7139749,4.0024858 29.5031558,4.30794271 29.3662003,4.68803267 C29.2292448,5.06812263 29.160767,5.484375 29.160767,5.93678977 C29.160767,6.3922822 29.2292448,6.80930398 29.3662003,7.18785511 C29.5031558,7.56640625 29.7139749,7.86955492 29.9986577,8.09730114 C30.2833404,8.32504735 30.6426563,8.43892045 31.0766051,8.43892045 Z" id="Shape"></path>
            <path d="M36.5178977,12.1136364 C36.3116951,12.1136364 36.1239583,12.0974787 35.9546875,12.0651634 C35.7854167,12.032848 35.659233,11.9982244 35.5761364,11.9612926 L35.9085227,10.8302557 C36.1608902,10.897964 36.3855587,10.9272017 36.5825284,10.9179688 C36.7794981,10.9087358 36.9541548,10.8348722 37.1064986,10.6963778 C37.2588423,10.5578835 37.3934896,10.3316761 37.5104403,10.0177557 L37.68125,9.546875 L35.0867898,2.36363636 L36.5640625,2.36363636 L38.3598722,7.86647727 L38.4337358,7.86647727 L40.2295455,2.36363636 L41.7114347,2.36363636 L38.7892045,10.4009233 C38.6537879,10.7702415 38.4814394,11.0833925 38.2721591,11.3403764 C38.0628788,11.5973603 37.813589,11.790483 37.5242898,11.9197443 C37.2349905,12.0490057 36.8995265,12.1136364 36.5178977,12.1136364 Z" id="Path"></path>
        </g>
    </g>
</svg>