<svg xmlns="http://www.w3.org/2000/svg" width="396" height="79" fill="none" viewBox="0 0 396 79"><g fill="#fff" clip-path="url(#a)"><path d="M373 0C385.703 0 396 10.2975 396 23C396 35.7025 385.703 46 373 46H351C338.297 46 328 35.7025 328 23C328 10.2975 338.297 0 351 0H373ZM373.633 9.36426C370.777 9.36433 368.523 10.022 366.871 11.3379C364.883 12.9339 363.539 14.8938 362.839 17.2178C362.139 19.5138 361.789 22.2162 361.789 25.3242C361.789 29.076 362.728 32.0576 364.604 34.2695C366.479 36.4815 369.125 37.5878 372.541 37.5879C375.929 37.5879 378.603 36.7343 380.563 35.0264C382.523 33.2904 383.503 30.8958 383.503 27.8438C383.503 25.0159 382.691 22.8599 381.067 21.376C379.471 19.892 377.273 19.1505 374.474 19.1504C373.27 19.1504 372.233 19.3043 371.365 19.6123C370.525 19.9203 369.896 20.2282 369.476 20.5361C369.056 20.8437 368.79 20.9976 368.678 20.998C368.482 20.998 368.383 20.83 368.383 20.4941C368.383 20.1303 368.453 19.6962 368.593 19.1924C368.733 18.6604 368.958 18.0857 369.266 17.4697C369.574 16.8259 370.035 16.2939 370.651 15.874C371.295 15.4261 372.037 15.2022 372.877 15.2021C373.381 15.2021 374.151 15.412 375.188 15.832C376.223 16.2239 377.231 16.4199 378.211 16.4199C378.967 16.4199 379.626 16.1541 380.186 15.6221C380.745 15.0622 381.025 14.3902 381.025 13.6064C381.025 12.7945 380.774 12.0938 380.27 11.5059C379.794 10.9179 379.163 10.4841 378.379 10.2041C377.595 9.89617 376.811 9.68621 376.027 9.57422C375.243 9.43422 374.445 9.36426 373.633 9.36426ZM356.85 16C356.318 16 355.842 16.098 355.422 16.2939C355.03 16.4899 354.722 16.7139 354.498 16.9658C354.274 17.2178 354.064 17.6098 353.868 18.1416C353.672 18.6736 353.518 19.1503 353.406 19.5703C353.322 19.9623 353.196 20.5642 353.028 21.376C352.86 22.1597 352.72 22.7897 352.608 23.2656C351.572 28.1376 350.802 30.5742 350.298 30.5742C350.102 30.5741 349.85 30.294 349.542 29.7344C349.262 29.1744 348.954 28.4178 348.618 27.4658C348.31 26.514 348.03 25.6322 347.778 24.8203C347.554 24.0083 347.316 23.1398 347.064 22.2158C346.812 21.2639 346.672 20.7461 346.644 20.6621C346.616 20.5501 346.518 20.1862 346.35 19.5703C346.182 18.9263 346.028 18.4776 345.888 18.2256C345.776 17.9736 345.594 17.6375 345.342 17.2178C345.09 16.7699 344.768 16.4619 344.376 16.2939C344.012 16.098 343.578 16 343.074 16C342.094 16 341.254 16.2659 340.554 16.7979C339.882 17.3298 339.546 18.0585 339.546 18.9824C339.546 20.4385 340.261 22.7904 341.688 26.0381C342.08 26.8781 342.626 28.1805 343.326 29.9443C344.054 31.7079 344.642 33.0657 345.09 34.0176C345.622 35.2216 346.266 36.1041 347.022 36.6641C347.806 37.2239 348.814 37.5039 350.046 37.5039C351.838 37.5039 353.196 36.8602 354.12 35.5723C354.82 34.5643 355.996 32.0157 357.648 27.9277C359.356 23.4764 360.21 20.6625 360.21 19.4863C360.21 18.4503 359.902 17.6098 359.286 16.9658C358.67 16.3218 357.858 16 356.85 16ZM373.381 24.1904C374.585 24.1904 375.565 24.5402 376.321 25.2402C377.077 25.9402 377.455 26.9479 377.455 28.2637C377.455 29.4117 377.035 30.3361 376.195 31.0361C375.355 31.7361 374.375 32.0859 373.255 32.0859C371.659 32.0859 370.455 31.54 369.644 30.4482C368.832 29.3562 368.425 28.026 368.425 26.458C368.817 25.674 369.475 25.1003 370.399 24.7363C371.351 24.3724 372.345 24.1905 373.381 24.1904Z"/><path d="M284.526 41.552C284.526 36.736 286.794 34.328 291.33 34.328C295.698 34.328 297.882 36.512 297.882 40.88C298.89 38.976 300.402 37.52 302.418 36.512C304.434 35.504 306.59 35 308.886 35C318.742 35 323.67 40.264 323.67 50.792C323.67 51.744 323.614 53.116 323.502 54.908C323.446 56.7 323.418 58.044 323.418 58.94C323.418 61.516 323.558 63.896 323.838 66.08C324.174 68.208 324.342 69.832 324.342 70.952C324.342 73.136 323.754 74.844 322.578 76.076C321.402 77.252 319.722 77.84 317.538 77.84C315.522 77.84 313.926 77.28 312.75 76.16C311.63 75.04 311.07 73.444 311.07 71.372C311.07 69.86 311.154 67.648 311.322 64.736C311.49 61.824 311.574 59.612 311.574 58.1C311.574 56.644 311.49 55.412 311.322 54.404C311.21 53.34 310.958 52.22 310.566 51.044C310.174 49.812 309.502 48.888 308.55 48.272C307.654 47.6 306.506 47.264 305.106 47.264C302.81 47.264 300.962 47.964 299.562 49.364C298.218 50.708 297.546 52.584 297.546 54.992C297.546 57.848 297.63 60.9 297.798 64.148C298.022 67.396 298.134 69.748 298.134 71.204C298.134 73.276 297.518 74.928 296.286 76.16C295.11 77.392 293.458 78.008 291.33 78.008C289.538 78.008 287.97 77.392 286.626 76.16C285.338 74.928 284.694 73.444 284.694 71.708C284.694 70.756 284.834 68.796 285.114 65.828C285.394 62.804 285.534 59.78 285.534 56.756C285.534 53.62 285.366 50.456 285.03 47.264C284.694 44.072 284.526 42.168 284.526 41.552Z"/><path d="M279.209 56C279.209 62.272 277.417 67.564 273.833 71.876C270.249 76.132 265.265 78.26 258.881 78.26C252.441 78.26 247.345 76.356 243.593 72.548C239.897 68.74 238.049 63.56 238.049 57.008C238.049 50.176 239.757 44.688 243.173 40.544C246.589 36.4 251.741 34.328 258.629 34.328C265.125 34.328 270.165 36.232 273.749 40.04C277.389 43.792 279.209 49.112 279.209 56ZM251.993 64.148C253.505 66.164 255.633 67.172 258.377 67.172C261.121 67.172 263.305 66.136 264.929 64.064C266.553 61.936 267.365 59.416 267.365 56.504C267.365 53.2 266.637 50.456 265.181 48.272C263.725 46.088 261.401 44.996 258.209 44.996C255.353 44.996 253.225 46.172 251.825 48.524C250.425 50.82 249.725 53.564 249.725 56.756C249.725 59.612 250.481 62.076 251.993 64.148Z"/><path d="M200.197 18.452C204.957 18.452 207.337 21.14 207.337 26.516C207.337 26.572 207.253 28.308 207.085 31.724C206.917 35.084 206.833 37.464 206.833 38.864L207.673 38.108C210.361 35.756 214.169 34.58 219.097 34.58C221.617 34.58 223.801 35.084 225.649 36.092C227.497 37.1 228.925 38.528 229.933 40.376C230.941 42.168 231.669 44.128 232.117 46.256C232.621 48.328 232.873 50.624 232.873 53.144C232.873 57.232 233.013 60.704 233.293 63.56C233.573 66.416 233.713 68.012 233.713 68.348C233.713 74.676 231.473 77.84 226.993 77.84C224.753 77.84 223.045 77.028 221.869 75.404C220.749 73.78 220.189 71.764 220.189 69.356C220.189 67.62 220.329 65.24 220.609 62.216C220.889 59.192 221.029 56.448 221.029 53.984C221.029 51.856 220.357 50.12 219.013 48.776C217.725 47.376 215.989 46.676 213.805 46.676C212.349 46.676 211.117 46.984 210.109 47.6C209.157 48.16 208.429 48.804 207.925 49.532C207.421 50.26 207.029 51.296 206.749 52.64C206.469 53.984 206.301 55.104 206.245 56C206.245 56.84 206.245 58.016 206.245 59.528C206.245 60.872 206.413 62.748 206.749 65.156C207.085 67.508 207.253 69.216 207.253 70.28C207.253 72.184 206.693 73.92 205.573 75.488C204.509 77 202.857 77.756 200.617 77.756C197.929 77.756 196.053 76.972 194.989 75.404C193.925 73.836 193.393 71.596 193.393 68.684C193.393 66.612 193.617 63 194.065 57.848C194.513 52.696 194.737 48.776 194.737 46.088C194.737 42.672 194.485 39.2 193.981 35.672C193.477 32.088 193.225 29.288 193.225 27.272C193.225 24.192 193.757 21.952 194.821 20.552C195.941 19.152 197.733 18.452 200.197 18.452Z"/><path d="M163.412 35.252C163.412 34.86 163.328 34.216 163.16 33.32C163.048 32.424 162.992 31.724 162.992 31.22C162.992 26.628 165.484 24.332 170.468 24.332C173.884 24.332 175.592 25.928 175.592 29.12C175.592 29.848 175.452 30.912 175.172 32.312C174.948 33.656 174.836 34.664 174.836 35.336C174.836 36.064 175.396 36.428 176.516 36.428C177.076 36.428 177.972 36.372 179.204 36.26C180.492 36.092 181.444 36.008 182.06 36.008C183.852 36.008 185.28 36.484 186.344 37.436C187.408 38.388 187.94 39.732 187.94 41.468C187.94 43.54 187.268 45.192 185.924 46.424C184.636 47.656 182.928 48.272 180.8 48.272C180.128 48.272 179.288 48.244 178.28 48.188C177.328 48.076 176.544 48.02 175.928 48.02C174.808 48.02 174.164 48.188 173.996 48.524C173.66 49.084 173.492 51.884 173.492 56.924C173.492 57.204 173.492 57.764 173.492 58.604C173.492 59.444 173.492 60.06 173.492 60.452C173.548 60.844 173.604 61.404 173.66 62.132C173.716 62.86 173.828 63.42 173.996 63.812C174.164 64.204 174.36 64.624 174.584 65.072C174.808 65.464 175.116 65.772 175.508 65.996C175.9 66.164 176.376 66.248 176.936 66.248C177.664 66.248 178.728 66.024 180.128 65.576C181.528 65.072 182.62 64.82 183.404 64.82C184.58 64.82 185.504 65.324 186.176 66.332C186.904 67.284 187.268 68.404 187.268 69.692C187.268 72.38 186.092 74.48 183.74 75.992C181.444 77.448 178.336 78.176 174.416 78.176C169.544 78.176 166.212 76.72 164.42 73.808C162.628 70.84 161.732 66.836 161.732 61.796C161.732 60.284 161.788 58.016 161.9 54.992C162.012 51.912 162.068 49.616 162.068 48.104C160.164 48.104 158.568 47.572 157.28 46.508C155.992 45.444 155.348 43.96 155.348 42.056C155.348 40.768 155.572 39.788 156.02 39.116C156.748 37.94 157.728 37.156 158.96 36.764C160.248 36.372 161.312 36.148 162.152 36.092C162.992 36.036 163.412 35.756 163.412 35.252Z"/><path d="M135.403 33.908C145.931 33.908 151.195 37.912 151.195 45.92C151.195 46.816 151.111 48.272 150.943 50.288C150.831 52.304 150.775 53.76 150.775 54.656C150.775 59.192 150.915 63.252 151.195 66.836C151.531 70.364 151.699 72.24 151.699 72.464C151.699 74.144 151.083 75.46 149.851 76.412C148.619 77.308 147.135 77.756 145.399 77.756C144.167 77.756 143.103 77.504 142.207 77C141.311 76.496 140.667 75.964 140.275 75.404C139.939 74.788 139.547 74.228 139.099 73.724C138.707 73.22 138.315 72.968 137.923 72.968C137.699 72.968 137.167 73.36 136.327 74.144C135.543 74.928 134.395 75.74 132.883 76.58C131.371 77.364 129.663 77.756 127.759 77.756C122.887 77.756 119.135 75.908 116.503 72.212C113.871 68.516 112.555 64.12 112.555 59.024C112.555 50.904 114.487 44.688 118.351 40.376C122.271 36.064 127.955 33.908 135.403 33.908ZM124.483 58.1C124.483 60.452 125.015 62.468 126.079 64.148C127.199 65.772 128.907 66.584 131.203 66.584C134.115 66.584 136.243 65.156 137.587 62.3C138.987 59.444 139.687 56.392 139.687 53.144C139.687 51.576 139.631 50.4 139.519 49.616C139.463 48.832 139.239 47.992 138.847 47.096C138.511 46.144 137.923 45.5 137.083 45.164C136.243 44.772 135.095 44.576 133.639 44.576C130.391 44.576 128.039 45.92 126.583 48.608C125.183 51.296 124.483 54.46 124.483 58.1Z"/><path d="M69.6062 27.188C69.6062 24.724 70.1662 22.792 71.2862 21.392C72.4622 19.992 74.1422 19.292 76.3262 19.292C78.7902 19.292 80.6662 20.104 81.9542 21.728C83.2422 23.296 83.8862 25.396 83.8862 28.028C83.8862 29.204 83.7462 30.856 83.4662 32.984C83.1862 35.056 83.0182 36.4 82.9622 37.016C82.7382 39.144 82.6262 42.392 82.6262 46.76C82.6262 47.992 82.7942 48.608 83.1302 48.608C83.2982 48.608 83.4942 48.524 83.7182 48.356C83.9982 48.132 84.3342 47.824 84.7262 47.432C85.1182 46.984 85.3982 46.676 85.5662 46.508C86.1262 45.892 87.2182 44.604 88.8422 42.644C90.5222 40.628 91.7822 39.172 92.6222 38.276C93.5182 37.38 94.6662 36.484 96.0662 35.588C97.5222 34.692 98.8662 34.244 100.098 34.244C101.946 34.244 103.458 34.776 104.634 35.84C105.866 36.904 106.482 38.36 106.482 40.208C106.482 40.264 106.454 40.376 106.398 40.544C106.398 40.712 106.398 40.824 106.398 40.88C106.342 41.44 106.23 41.972 106.062 42.476C105.894 42.924 105.642 43.372 105.306 43.82C104.97 44.268 104.69 44.66 104.466 44.996C104.242 45.276 103.85 45.64 103.29 46.088C102.73 46.536 102.366 46.844 102.198 47.012C102.03 47.18 101.582 47.516 100.854 48.02C100.182 48.524 99.7902 48.804 99.6782 48.86C99.6222 48.86 96.8222 50.792 91.2782 54.656C93.2382 57.12 97.1302 60.312 102.954 64.232C103.122 64.344 103.542 64.624 104.214 65.072C104.886 65.52 105.306 65.828 105.474 65.996C105.698 66.108 106.034 66.388 106.482 66.836C106.986 67.284 107.294 67.676 107.406 68.012C107.574 68.348 107.742 68.796 107.91 69.356C108.078 69.86 108.162 70.42 108.162 71.036C108.162 73.052 107.49 74.648 106.146 75.824C104.858 76.944 103.178 77.504 101.106 77.504C99.6502 77.504 98.1382 77 96.5702 75.992C95.0582 74.928 93.9382 73.976 93.2102 73.136C92.4822 72.24 91.4182 70.924 90.0182 69.188C86.4902 64.652 83.8582 61.432 82.1222 59.528C82.1222 61.32 82.1782 63.252 82.2902 65.324C82.4582 67.396 82.5422 68.796 82.5422 69.524C82.5422 71.876 82.0662 73.892 81.1142 75.572C80.1622 77.196 78.6222 78.008 76.4942 78.008C74.0302 78.008 72.1542 77.196 70.8662 75.572C69.6342 73.948 69.0182 71.876 69.0182 69.356C69.0182 69.02 69.2702 66.668 69.7742 62.3C70.2782 57.876 70.5302 53.116 70.5302 48.02C70.5302 44.38 70.3622 40.46 70.0262 36.26C69.7462 32.06 69.6062 29.036 69.6062 27.188Z"/><path d="M22.9284 41.552C22.9284 36.736 25.1964 34.328 29.7324 34.328C34.1004 34.328 36.2844 36.512 36.2844 40.88C37.2924 38.976 38.8044 37.52 40.8204 36.512C42.8364 35.504 44.9924 35 47.2884 35C57.1444 35 62.0724 40.264 62.0724 50.792C62.0724 51.744 62.0164 53.116 61.9044 54.908C61.8484 56.7 61.8204 58.044 61.8204 58.94C61.8204 61.516 61.9604 63.896 62.2404 66.08C62.5764 68.208 62.7444 69.832 62.7444 70.952C62.7444 73.136 62.1564 74.844 60.9804 76.076C59.8044 77.252 58.1244 77.84 55.9404 77.84C53.9244 77.84 52.3284 77.28 51.1524 76.16C50.0324 75.04 49.4724 73.444 49.4724 71.372C49.4724 69.86 49.5564 67.648 49.7244 64.736C49.8924 61.824 49.9764 59.612 49.9764 58.1C49.9764 56.644 49.8924 55.412 49.7244 54.404C49.6124 53.34 49.3604 52.22 48.9684 51.044C48.5764 49.812 47.9044 48.888 46.9524 48.272C46.0564 47.6 44.9084 47.264 43.5084 47.264C41.2124 47.264 39.3644 47.964 37.9644 49.364C36.6204 50.708 35.9484 52.584 35.9484 54.992C35.9484 57.848 36.0324 60.9 36.2004 64.148C36.4244 67.396 36.5364 69.748 36.5364 71.204C36.5364 73.276 35.9204 74.928 34.6884 76.16C33.5124 77.392 31.8604 78.008 29.7324 78.008C27.9404 78.008 26.3724 77.392 25.0284 76.16C23.7404 74.928 23.0964 73.444 23.0964 71.708C23.0964 70.756 23.2364 68.796 23.5164 65.828C23.7964 62.804 23.9364 59.78 23.9364 56.756C23.9364 53.62 23.7684 50.456 23.4324 47.264C23.0964 44.072 22.9284 42.168 22.9284 41.552Z"/><path d="M2.04 54.488C2.04 53.704 1.984 52.444 1.872 50.708C1.816 48.916 1.788 47.6 1.788 46.76C1.788 44.576 2.292 43.092 3.3 42.308C4.364 41.468 5.96 41.048 8.088 41.048C12.4 41.048 14.556 42.756 14.556 46.172C14.556 48.188 14.5 50.68 14.388 53.648C14.332 56.56 14.304 58.632 14.304 59.864C14.304 61.096 14.5 62.692 14.892 64.652C15.34 66.612 15.564 68.096 15.564 69.104C15.564 74.872 13.184 77.756 8.424 77.756C5.736 77.756 3.888 77.224 2.88 76.16C1.928 75.04 1.452 73.136 1.452 70.448C1.452 68.712 1.536 66.08 1.704 62.552C1.928 58.968 2.04 56.28 2.04 54.488ZM9.936 20.804C11.952 20.804 13.464 21.476 14.472 22.82C15.536 24.108 16.068 25.788 16.068 27.86C16.068 29.82 15.564 31.724 14.556 33.572C13.548 35.42 12.148 36.344 10.356 36.344C4.028 36.344 0.863998 34.16 0.863998 29.792C0.863998 26.376 1.536 24.024 2.88 22.736C4.224 21.448 6.576 20.804 9.936 20.804Z"/></g><defs><clipPath id="a"><rect width="396" height="79" fill="#fff"/></clipPath></defs></svg>