<svg xmlns="http://www.w3.org/2000/svg" width="325" height="61" fill="none" viewBox="0 0 325 61"><g fill="#fff" clip-path="url(#a)"><path d="M284.526 23.552C284.526 18.736 286.794 16.328 291.33 16.328C295.698 16.328 297.882 18.512 297.882 22.88C298.89 20.976 300.402 19.52 302.418 18.512C304.434 17.504 306.59 17 308.886 17C318.742 17 323.67 22.264 323.67 32.792C323.67 33.744 323.614 35.116 323.502 36.908C323.446 38.7 323.418 40.044 323.418 40.94C323.418 43.516 323.558 45.896 323.838 48.08C324.174 50.208 324.342 51.832 324.342 52.952C324.342 55.136 323.754 56.844 322.578 58.076C321.402 59.252 319.722 59.84 317.538 59.84C315.522 59.84 313.926 59.28 312.75 58.16C311.63 57.04 311.07 55.444 311.07 53.372C311.07 51.86 311.154 49.648 311.322 46.736C311.49 43.824 311.574 41.612 311.574 40.1C311.574 38.644 311.49 37.412 311.322 36.404C311.21 35.34 310.958 34.22 310.566 33.044C310.174 31.812 309.502 30.888 308.55 30.272C307.654 29.6 306.506 29.264 305.106 29.264C302.81 29.264 300.962 29.964 299.562 31.364C298.218 32.708 297.546 34.584 297.546 36.992C297.546 39.848 297.63 42.9 297.798 46.148C298.022 49.396 298.134 51.748 298.134 53.204C298.134 55.276 297.518 56.928 296.286 58.16C295.11 59.392 293.458 60.008 291.33 60.008C289.538 60.008 287.97 59.392 286.626 58.16C285.338 56.928 284.694 55.444 284.694 53.708C284.694 52.756 284.834 50.796 285.114 47.828C285.394 44.804 285.534 41.78 285.534 38.756C285.534 35.62 285.366 32.456 285.03 29.264C284.694 26.072 284.526 24.168 284.526 23.552Z"/><path d="M279.209 38C279.209 44.272 277.417 49.564 273.833 53.876C270.249 58.132 265.265 60.26 258.881 60.26C252.441 60.26 247.345 58.356 243.593 54.548C239.897 50.74 238.049 45.56 238.049 39.008C238.049 32.176 239.757 26.688 243.173 22.544C246.589 18.4 251.741 16.328 258.629 16.328C265.125 16.328 270.165 18.232 273.749 22.04C277.389 25.792 279.209 31.112 279.209 38ZM251.993 46.148C253.505 48.164 255.633 49.172 258.377 49.172C261.121 49.172 263.305 48.136 264.929 46.064C266.553 43.936 267.365 41.416 267.365 38.504C267.365 35.2 266.637 32.456 265.181 30.272C263.725 28.088 261.401 26.996 258.209 26.996C255.353 26.996 253.225 28.172 251.825 30.524C250.425 32.82 249.725 35.564 249.725 38.756C249.725 41.612 250.481 44.076 251.993 46.148Z"/><path d="M200.197 0.451996C204.957 0.451996 207.337 3.14 207.337 8.516C207.337 8.572 207.253 10.308 207.085 13.724C206.917 17.084 206.833 19.464 206.833 20.864L207.673 20.108C210.361 17.756 214.169 16.58 219.097 16.58C221.617 16.58 223.801 17.084 225.649 18.092C227.497 19.1 228.925 20.528 229.933 22.376C230.941 24.168 231.669 26.128 232.117 28.256C232.621 30.328 232.873 32.624 232.873 35.144C232.873 39.232 233.013 42.704 233.293 45.56C233.573 48.416 233.713 50.012 233.713 50.348C233.713 56.676 231.473 59.84 226.993 59.84C224.753 59.84 223.045 59.028 221.869 57.404C220.749 55.78 220.189 53.764 220.189 51.356C220.189 49.62 220.329 47.24 220.609 44.216C220.889 41.192 221.029 38.448 221.029 35.984C221.029 33.856 220.357 32.12 219.013 30.776C217.725 29.376 215.989 28.676 213.805 28.676C212.349 28.676 211.117 28.984 210.109 29.6C209.157 30.16 208.429 30.804 207.925 31.532C207.421 32.26 207.029 33.296 206.749 34.64C206.469 35.984 206.301 37.104 206.245 38C206.245 38.84 206.245 40.016 206.245 41.528C206.245 42.872 206.413 44.748 206.749 47.156C207.085 49.508 207.253 51.216 207.253 52.28C207.253 54.184 206.693 55.92 205.573 57.488C204.509 59 202.857 59.756 200.617 59.756C197.929 59.756 196.053 58.972 194.989 57.404C193.925 55.836 193.393 53.596 193.393 50.684C193.393 48.612 193.617 45 194.065 39.848C194.513 34.696 194.737 30.776 194.737 28.088C194.737 24.672 194.485 21.2 193.981 17.672C193.477 14.088 193.225 11.288 193.225 9.272C193.225 6.192 193.757 3.952 194.821 2.55199C195.941 1.152 197.733 0.451996 200.197 0.451996Z"/><path d="M163.412 17.252C163.412 16.86 163.328 16.216 163.16 15.32C163.048 14.424 162.992 13.724 162.992 13.22C162.992 8.628 165.484 6.332 170.468 6.332C173.884 6.332 175.592 7.928 175.592 11.12C175.592 11.848 175.452 12.912 175.172 14.312C174.948 15.656 174.836 16.664 174.836 17.336C174.836 18.064 175.396 18.428 176.516 18.428C177.076 18.428 177.972 18.372 179.204 18.26C180.492 18.092 181.444 18.008 182.06 18.008C183.852 18.008 185.28 18.484 186.344 19.436C187.408 20.388 187.94 21.732 187.94 23.468C187.94 25.54 187.268 27.192 185.924 28.424C184.636 29.656 182.928 30.272 180.8 30.272C180.128 30.272 179.288 30.244 178.28 30.188C177.328 30.076 176.544 30.02 175.928 30.02C174.808 30.02 174.164 30.188 173.996 30.524C173.66 31.084 173.492 33.884 173.492 38.924C173.492 39.204 173.492 39.764 173.492 40.604C173.492 41.444 173.492 42.06 173.492 42.452C173.548 42.844 173.604 43.404 173.66 44.132C173.716 44.86 173.828 45.42 173.996 45.812C174.164 46.204 174.36 46.624 174.584 47.072C174.808 47.464 175.116 47.772 175.508 47.996C175.9 48.164 176.376 48.248 176.936 48.248C177.664 48.248 178.728 48.024 180.128 47.576C181.528 47.072 182.62 46.82 183.404 46.82C184.58 46.82 185.504 47.324 186.176 48.332C186.904 49.284 187.268 50.404 187.268 51.692C187.268 54.38 186.092 56.48 183.74 57.992C181.444 59.448 178.336 60.176 174.416 60.176C169.544 60.176 166.212 58.72 164.42 55.808C162.628 52.84 161.732 48.836 161.732 43.796C161.732 42.284 161.788 40.016 161.9 36.992C162.012 33.912 162.068 31.616 162.068 30.104C160.164 30.104 158.568 29.572 157.28 28.508C155.992 27.444 155.348 25.96 155.348 24.056C155.348 22.768 155.572 21.788 156.02 21.116C156.748 19.94 157.728 19.156 158.96 18.764C160.248 18.372 161.312 18.148 162.152 18.092C162.992 18.036 163.412 17.756 163.412 17.252Z"/><path d="M135.403 15.908C145.931 15.908 151.195 19.912 151.195 27.92C151.195 28.816 151.111 30.272 150.943 32.288C150.831 34.304 150.775 35.76 150.775 36.656C150.775 41.192 150.915 45.252 151.195 48.836C151.531 52.364 151.699 54.24 151.699 54.464C151.699 56.144 151.083 57.46 149.851 58.412C148.619 59.308 147.135 59.756 145.399 59.756C144.167 59.756 143.103 59.504 142.207 59C141.311 58.496 140.667 57.964 140.275 57.404C139.939 56.788 139.547 56.228 139.099 55.724C138.707 55.22 138.315 54.968 137.923 54.968C137.699 54.968 137.167 55.36 136.327 56.144C135.543 56.928 134.395 57.74 132.883 58.58C131.371 59.364 129.663 59.756 127.759 59.756C122.887 59.756 119.135 57.908 116.503 54.212C113.871 50.516 112.555 46.12 112.555 41.024C112.555 32.904 114.487 26.688 118.351 22.376C122.271 18.064 127.955 15.908 135.403 15.908ZM124.483 40.1C124.483 42.452 125.015 44.468 126.079 46.148C127.199 47.772 128.907 48.584 131.203 48.584C134.115 48.584 136.243 47.156 137.587 44.3C138.987 41.444 139.687 38.392 139.687 35.144C139.687 33.576 139.631 32.4 139.519 31.616C139.463 30.832 139.239 29.992 138.847 29.096C138.511 28.144 137.923 27.5 137.083 27.164C136.243 26.772 135.095 26.576 133.639 26.576C130.391 26.576 128.039 27.92 126.583 30.608C125.183 33.296 124.483 36.46 124.483 40.1Z"/><path d="M69.6062 9.18799C69.6062 6.72399 70.1662 4.79199 71.2862 3.39199C72.4622 1.99199 74.1422 1.29199 76.3262 1.29199C78.7902 1.29199 80.6662 2.10399 81.9542 3.72799C83.2422 5.29599 83.8862 7.39599 83.8862 10.028C83.8862 11.204 83.7462 12.856 83.4662 14.984C83.1862 17.056 83.0182 18.4 82.9622 19.016C82.7382 21.144 82.6262 24.392 82.6262 28.76C82.6262 29.992 82.7942 30.608 83.1302 30.608C83.2982 30.608 83.4942 30.524 83.7182 30.356C83.9982 30.132 84.3342 29.824 84.7262 29.432C85.1182 28.984 85.3982 28.676 85.5662 28.508C86.1262 27.892 87.2182 26.604 88.8422 24.644C90.5222 22.628 91.7822 21.172 92.6222 20.276C93.5182 19.38 94.6662 18.484 96.0662 17.588C97.5222 16.692 98.8662 16.244 100.098 16.244C101.946 16.244 103.458 16.776 104.634 17.84C105.866 18.904 106.482 20.36 106.482 22.208C106.482 22.264 106.454 22.376 106.398 22.544C106.398 22.712 106.398 22.824 106.398 22.88C106.342 23.44 106.23 23.972 106.062 24.476C105.894 24.924 105.642 25.372 105.306 25.82C104.97 26.268 104.69 26.66 104.466 26.996C104.242 27.276 103.85 27.64 103.29 28.088C102.73 28.536 102.366 28.844 102.198 29.012C102.03 29.18 101.582 29.516 100.854 30.02C100.182 30.524 99.7902 30.804 99.6782 30.86C99.6222 30.86 96.8222 32.792 91.2782 36.656C93.2382 39.12 97.1302 42.312 102.954 46.232C103.122 46.344 103.542 46.624 104.214 47.072C104.886 47.52 105.306 47.828 105.474 47.996C105.698 48.108 106.034 48.388 106.482 48.836C106.986 49.284 107.294 49.676 107.406 50.012C107.574 50.348 107.742 50.796 107.91 51.356C108.078 51.86 108.162 52.42 108.162 53.036C108.162 55.052 107.49 56.648 106.146 57.824C104.858 58.944 103.178 59.504 101.106 59.504C99.6502 59.504 98.1382 59 96.5702 57.992C95.0582 56.928 93.9382 55.976 93.2102 55.136C92.4822 54.24 91.4182 52.924 90.0182 51.188C86.4902 46.652 83.8582 43.432 82.1222 41.528C82.1222 43.32 82.1782 45.252 82.2902 47.324C82.4582 49.396 82.5422 50.796 82.5422 51.524C82.5422 53.876 82.0662 55.892 81.1142 57.572C80.1622 59.196 78.6222 60.008 76.4942 60.008C74.0302 60.008 72.1542 59.196 70.8662 57.572C69.6342 55.948 69.0182 53.876 69.0182 51.356C69.0182 51.02 69.2702 48.668 69.7742 44.3C70.2782 39.876 70.5302 35.116 70.5302 30.02C70.5302 26.38 70.3622 22.46 70.0262 18.26C69.7462 14.06 69.6062 11.036 69.6062 9.18799Z"/><path d="M22.9284 23.552C22.9284 18.736 25.1964 16.328 29.7324 16.328C34.1004 16.328 36.2844 18.512 36.2844 22.88C37.2924 20.976 38.8044 19.52 40.8204 18.512C42.8364 17.504 44.9924 17 47.2884 17C57.1444 17 62.0724 22.264 62.0724 32.792C62.0724 33.744 62.0164 35.116 61.9044 36.908C61.8484 38.7 61.8204 40.044 61.8204 40.94C61.8204 43.516 61.9604 45.896 62.2404 48.08C62.5764 50.208 62.7444 51.832 62.7444 52.952C62.7444 55.136 62.1564 56.844 60.9804 58.076C59.8044 59.252 58.1244 59.84 55.9404 59.84C53.9244 59.84 52.3284 59.28 51.1524 58.16C50.0324 57.04 49.4724 55.444 49.4724 53.372C49.4724 51.86 49.5564 49.648 49.7244 46.736C49.8924 43.824 49.9764 41.612 49.9764 40.1C49.9764 38.644 49.8924 37.412 49.7244 36.404C49.6124 35.34 49.3604 34.22 48.9684 33.044C48.5764 31.812 47.9044 30.888 46.9524 30.272C46.0564 29.6 44.9084 29.264 43.5084 29.264C41.2124 29.264 39.3644 29.964 37.9644 31.364C36.6204 32.708 35.9484 34.584 35.9484 36.992C35.9484 39.848 36.0324 42.9 36.2004 46.148C36.4244 49.396 36.5364 51.748 36.5364 53.204C36.5364 55.276 35.9204 56.928 34.6884 58.16C33.5124 59.392 31.8604 60.008 29.7324 60.008C27.9404 60.008 26.3724 59.392 25.0284 58.16C23.7404 56.928 23.0964 55.444 23.0964 53.708C23.0964 52.756 23.2364 50.796 23.5164 47.828C23.7964 44.804 23.9364 41.78 23.9364 38.756C23.9364 35.62 23.7684 32.456 23.4324 29.264C23.0964 26.072 22.9284 24.168 22.9284 23.552Z"/><path d="M2.04 36.488C2.04 35.704 1.984 34.444 1.872 32.708C1.816 30.916 1.788 29.6 1.788 28.76C1.788 26.576 2.292 25.092 3.3 24.308C4.364 23.468 5.96 23.048 8.088 23.048C12.4 23.048 14.556 24.756 14.556 28.172C14.556 30.188 14.5 32.68 14.388 35.648C14.332 38.56 14.304 40.632 14.304 41.864C14.304 43.096 14.5 44.692 14.892 46.652C15.34 48.612 15.564 50.096 15.564 51.104C15.564 56.872 13.184 59.756 8.424 59.756C5.736 59.756 3.888 59.224 2.88 58.16C1.928 57.04 1.452 55.136 1.452 52.448C1.452 50.712 1.536 48.08 1.704 44.552C1.928 40.968 2.04 38.28 2.04 36.488ZM9.936 2.804C11.952 2.804 13.464 3.476 14.472 4.82C15.536 6.108 16.068 7.788 16.068 9.86C16.068 11.82 15.564 13.724 14.556 15.572C13.548 17.42 12.148 18.344 10.356 18.344C4.028 18.344 0.863998 16.16 0.863998 11.792C0.863998 8.376 1.536 6.024 2.88 4.736C4.224 3.448 6.576 2.804 9.936 2.804Z"/></g><defs><clipPath id="a"><rect width="325" height="61" fill="#fff"/></clipPath></defs></svg>