<svg width="36" height="36" viewBox="0 0 36 36" fill="none" xmlns="http://www.w3.org/2000/svg">
<path fill-rule="evenodd" clip-rule="evenodd" d="M18 36C27.945 36 36 27.945 36 18C36 8.055 27.945 0 18 0C8.055 0 0 8.055 0 18C0 27.945 8.055 36 18 36ZM21.4319 9.00122C23.147 9.29265 24.7873 9.80147 26.317 10.4921C26.3303 10.4977 26.3416 10.5071 26.3482 10.5202C29.0585 14.4428 30.3971 18.8676 29.8967 23.9616C29.8948 23.9831 29.8834 24.0028 29.8654 24.0159C27.8126 25.4993 25.8241 26.3998 23.8631 26.9967C23.8319 27.0061 23.7978 26.9949 23.7789 26.9686C23.3258 26.3483 22.9143 25.6942 22.5538 25.0073C22.533 24.967 22.552 24.9183 22.5945 24.9024C23.2482 24.6597 23.8697 24.3692 24.4676 24.0253C24.5149 23.9981 24.5177 23.9316 24.4742 23.8997C24.3475 23.8069 24.2216 23.7095 24.1015 23.612C24.0788 23.5942 24.0485 23.5905 24.023 23.6026C20.1415 25.3672 15.8893 25.3672 11.9615 23.6026C11.936 23.5914 11.9057 23.5952 11.884 23.613C11.7638 23.7104 11.638 23.8069 11.5122 23.8997C11.4687 23.9316 11.4724 23.9981 11.5197 24.0253C12.1176 24.3626 12.7391 24.6597 13.3919 24.9033C13.4344 24.9192 13.4543 24.967 13.4335 25.0073C13.0806 25.6952 12.6691 26.3492 12.2075 26.9695C12.1876 26.9949 12.1545 27.0061 12.1233 26.9967C10.1717 26.3998 8.18321 25.4993 6.1304 24.0159C6.11337 24.0028 6.10107 23.9822 6.09918 23.9606C5.68105 19.5545 6.53339 15.0931 9.64479 10.5193C9.65233 10.5071 9.66368 10.4977 9.67694 10.4921C11.2076 9.80054 12.8479 9.29172 14.562 9.00122C14.5933 8.99654 14.6245 9.01059 14.6406 9.03777C14.8525 9.40697 15.0946 9.8802 15.2583 10.2672C17.0652 9.99545 18.9004 9.99545 20.7451 10.2672C20.9087 9.88862 21.1424 9.40697 21.3534 9.03777C21.3695 9.00965 21.4007 8.9956 21.4319 9.00122ZM11.8631 18.8976C11.8631 20.2095 12.8375 21.2778 14.02 21.2778C15.2214 21.2778 16.1769 20.2095 16.1769 18.8976C16.1958 17.5951 15.2309 16.5175 14.02 16.5175C12.8186 16.5175 11.8631 17.5857 11.8631 18.8976ZM19.8379 18.8976C19.8379 20.2095 20.8123 21.2778 21.9947 21.2778C23.2056 21.2778 24.1516 20.2095 24.1516 18.8976C24.1705 17.5951 23.2056 16.5175 21.9947 16.5175C20.7933 16.5175 19.8379 17.5857 19.8379 18.8976Z" fill="white"/>
</svg>