<svg width="36" height="36" viewBox="0 0 36 36" fill="none" xmlns="http://www.w3.org/2000/svg">
<path d="M36 18C36 27.945 27.945 36 18 36C8.055 36 0 27.945 0 18C0 8.055 8.055 0 18 0C27.945 0 36 8.055 36 18ZM14.706 27.495C22.689 27.495 27.054 20.88 27.054 15.147C27.054 14.958 27.054 14.769 27.045 14.589C27.891 13.977 28.629 13.212 29.214 12.339C28.44 12.681 27.603 12.915 26.721 13.023C27.621 12.483 28.305 11.637 28.629 10.62C27.792 11.115 26.865 11.475 25.875 11.673C25.083 10.827 23.958 10.305 22.707 10.305C20.313 10.305 18.369 12.249 18.369 14.643C18.369 14.985 18.405 15.318 18.486 15.633C14.877 15.453 11.682 13.725 9.54 11.097C9.171 11.736 8.955 12.483 8.955 13.275C8.955 14.778 9.72 16.11 10.89 16.884C10.179 16.866 9.513 16.668 8.928 16.344C8.928 16.362 8.928 16.38 8.928 16.398C8.928 18.504 10.422 20.25 12.411 20.655C12.051 20.754 11.664 20.808 11.268 20.808C10.989 20.808 10.719 20.781 10.449 20.727C10.998 22.455 12.6 23.706 14.499 23.742C13.014 24.903 11.142 25.596 9.108 25.596C8.757 25.596 8.415 25.578 8.073 25.533C9.972 26.775 12.258 27.495 14.706 27.495Z" fill="white"/>
</svg>